<?xml version="1.0" encoding="UTF-8" standalone="no"?>
<svg
   xmlns:dc="http://purl.org/dc/elements/1.1/"
   xmlns:cc="http://creativecommons.org/ns#"
   xmlns:rdf="http://www.w3.org/1999/02/22-rdf-syntax-ns#"
   xmlns:svg="http://www.w3.org/2000/svg"
   xmlns="http://www.w3.org/2000/svg"
   xmlns:sodipodi="http://sodipodi.sourceforge.net/DTD/sodipodi-0.dtd"
   xmlns:inkscape="http://www.inkscape.org/namespaces/inkscape"
   width="320"
   height="180"
   viewBox="0 0 299.99999 168.75"
   id="svg6906"
   version="1.1"
   sodipodi:docname="banner_settings.svg"
   inkscape:version="1.0.2-2 (e86c870879, 2021-01-15)"
   inkscape:export-filename="D:\DEV\Android\ClockSaver\ClockSaver\app\src\main\res\drawable\banner_settings.png"
   inkscape:export-xdpi="95.842804"
   inkscape:export-ydpi="95.842804">
  <defs
     id="defs6908" />
  <sodipodi:namedview
     id="base"
     pagecolor="#ffffff"
     bordercolor="#666666"
     borderopacity="1.0"
     inkscape:pageopacity="0.0"
     inkscape:pageshadow="2"
     inkscape:zoom="5.6"
     inkscape:cx="139.74642"
     inkscape:cy="91.194486"
     inkscape:document-units="px"
     inkscape:current-layer="layer1"
     showgrid="false"
     fit-margin-top="0"
     fit-margin-left="0"
     fit-margin-right="0"
     fit-margin-bottom="0"
     inkscape:window-width="3378"
     inkscape:window-height="1417"
     inkscape:window-x="54"
     inkscape:window-y="-8"
     inkscape:window-maximized="1"
     inkscape:document-rotation="0"
     inkscape:snap-midpoints="true"
     units="px" />
  <metadata
     id="metadata6911">
    <rdf:RDF>
      <cc:Work
         rdf:about="">
        <dc:format>image/svg+xml</dc:format>
        <dc:type
           rdf:resource="http://purl.org/dc/dcmitype/StillImage" />
        <dc:title />
      </cc:Work>
    </rdf:RDF>
  </metadata>
  <g
     id="layer1"
     transform="translate(-25.714283,-752.36218)">
    <g
       id="g4159"
       transform="matrix(0.93819012,0,0,0.95942826,-215.63788,-4.5328365)"
       inkscape:export-filename="D:\Perso\DEV\Android ClockSaver\g4159.png"
       inkscape:export-xdpi="736.3125"
       inkscape:export-ydpi="736.3125">
      <rect
         y="788.72766"
         x="257.14841"
         height="176"
         width="320"
         id="rect6741"
         style="color:#000000;display:inline;overflow:visible;visibility:visible;opacity:1;fill:#333333;fill-opacity:1;fill-rule:nonzero;stroke:none;stroke-width:0;stroke-linecap:round;stroke-linejoin:round;stroke-miterlimit:4;stroke-dasharray:none;stroke-dashoffset:0;stroke-opacity:1;marker:none;enable-background:accumulate" />
    </g>
    <g
       id="g71"
       transform="matrix(2.0435451,0,0,2.0435451,145.95917,859.54685)">
      <path
         d="m 11.551666,-7.8922192 c 0.166802,-1.251083 0.250217,-2.5438668 0.250217,-3.9200588 0,-1.33449 -0.08341,-2.668977 -0.29192,-3.92006 l 8.465662,-6.589039 c 0.75065,-0.583837 0.959163,-1.709813 0.500433,-2.543867 l -8.006932,-13.845322 c -0.500433,-0.917462 -1.543001,-1.20938 -2.460463,-0.917462 l -9.966962,4.003467 c -2.085137,-1.584705 -4.295384,-2.919193 -6.755847,-3.920061 l -1.501299,-10.592503 c -0.166819,-1.000866 -1.000867,-1.709813 -2.001733,-1.709813 h -16.013864 c -1.000867,0 -1.79322,0.708947 -1.96003,1.709813 l -1.5013,10.592503 c -2.460463,1.000868 -4.712413,2.377059 -6.755849,3.920061 l -9.966962,-4.003467 c -0.91746,-0.333621 -1.960029,0 -2.460463,0.917462 l -7.965229,13.845322 c -0.500433,0.875757 -0.333622,1.96003 0.500434,2.543867 l 8.465662,6.589039 c -0.208514,1.251083 -0.375326,2.627273 -0.375326,3.920058 0,1.292786 0.08341,2.6689768 0.29192,3.9200598 l -8.465662,6.5890379 c -0.75065,0.5838394 -0.959164,1.7098133 -0.500434,2.5438693 l 8.006932,13.845319 c 0.500433,0.91746 1.543003,1.20938 2.460463,0.91746 L -36.489924,12 c 2.085139,1.584706 4.295386,2.919195 6.755849,3.920062 l 1.5013,10.592502 c 0.208513,1.000867 1.000866,1.709813 2.001733,1.709813 h 16.013864 c 1.000866,0 1.83492,-0.708946 1.960029,-1.709813 l 1.5013,-10.592502 C -4.295386,14.919195 -2.043436,13.584706 0,12 l 9.9669618,4.003466 c 0.9174602,0.333623 1.9600302,0 2.4604632,-0.91746 l 8.00693,-13.845319 c 0.500433,-0.9174621 0.29192,-1.9600299 -0.500433,-2.5438693 z M -18.22411,3.2007186 c -8.257149,0 -15.012998,-6.7558488 -15.012998,-15.0129966 0,-8.257149 6.755849,-15.012998 15.012998,-15.012998 8.257148,0 15.012997,6.755849 15.012997,15.012998 0,8.2571478 -6.755849,15.0129966 -15.012997,15.0129966 z"
         id="path69"
         style="fill:#4d4d4d;stroke-width:4.17027" />
      <path
         d="M 0,0 H 24 V 24 H 0 Z"
         fill="none"
         id="path67" />
    </g>
    <text
       xml:space="preserve"
       style="font-style:normal;font-weight:normal;font-size:49.1682px;line-height:1.25;font-family:sans-serif;letter-spacing:0px;word-spacing:0px;fill:#000000;fill-opacity:1;stroke:none;stroke-width:1.67618"
       x="68.650421"
       y="837.55121"
       id="text38-9"><tspan
         id="tspan36-6"
         x="68.650421"
         y="837.55121"
         style="font-style:normal;font-variant:normal;font-weight:normal;font-stretch:normal;font-size:49.1682px;font-family:Fyodor;-inkscape-font-specification:Fyodor;fill:#f9f9f9;stroke-width:1.67618">ClockSaver</tspan></text>
  </g>
</svg>
